<svg id="Layer_1" enable-background="new 0 0 32 32" viewBox="0 0 32 32" xmlns="http://www.w3.org/2000/svg"><path d="m27.39 16.19c-.16.74-.38 1.45-.7 2.14-.69 1.31-1.63 2.49-2.76 3.54-.37.33-.75.65-1.16.95-.12.09-.26.18-.39.27-.28.2-.56.39-.86.5699-.16.1-.34.19-.5.28-.27.15-.55.31-.84.46-.18.08-.36.15-.54.23-.3.14-.61.26-.92.37-.07.02-.13.06-.2.09 5.16-3.01 6.14-7.08 6.14-7.08-2.39 2.01-8.59 4.78-11.86 4.72-5.9-.11-9.8-4.42-8.73-9.62.08-.36.18-.72.3-1.07.05-.07.09-.13.14-.2.13-.2.24-.4.39-.59.3-.43.64-.83 1-1.21 2.78-3.03 7.06-5 11.45-4.92 6.78.1201 11.27 5.0901 10.04 11.0701z" fill="#e9a146"/><path d="m27.79 15.35c-.21 1.04-.59 2.04-1.1 2.98.32-.69.54-1.4.7-2.14 1.23-5.98-3.26-10.95-10.04-11.07-4.39-.08-8.67 1.89-11.45 4.92-.36.38-.7.78-1 1.21-.15.19-.26.39-.39.59-.03.04-.06.08-.08.12-.02.03-.04.05-.06.08v.01c-.08.12-.16.23-.23.36-.03.04-.05.09-.07.13-.04.07-.07.14-.11.2-.01.02-.02.03-.03.05.09-.21.18-.42.29-.62.09-.19.19-.38.3-.57.01-.0099.01-.02.02-.03.11-.2.25-.38.37-.57.13-.2.25-.4.39-.59.3-.43.64-.83 1-1.21 2.79-3.03 7.07-5 11.46-4.92 6.77.12 11.26 5.09 10.03 11.07z" fill="#fcb76b"/><path d="m20.76 7.94c-.07.11-.18.18-.28.25-.2401.16-.47.32-.71.48-.17.12-.33.23-.52.3-.17.07-.35.1-.52.13-.39.07-.77.14-1.16.2-.17.04-.34.07-.52.05-.17-.01-.35-.07-.46-.2-.12-.12-.17-.3-.19-.46-.05-.32-.01-.67.22-.9.11-.11.25-.18.4-.22-.09.22-.17.43-.26.64s-.18.46-.05.65c.11.17.33.19.55.16.09-.01.18-.04.26-.06.42-.13.83-.26 1.25-.39.29-.09.58-.18.85-.33.28-.15.52-.38.71-.63.13-.19.22-.49.03-.63-.17-.12-.4.01-.61.03-.06 0-.12 0-.18-.02.26-.13.62-.29.85-.15.1899.12.33.34.39.55.06.18.05.39-.05.55z" fill="#d1863b"/><path d="m24.96 13.68c-.09.28-.33.5-.62.55-.17.03-.36.01-.53-.02-.31-.04-.61-.09-.92-.13-.14-.02-.28-.05-.38-.14-.16-.14-.15-.4-.07-.59.08-.16.21-.33.37-.41.06-.03.11-.03.16-.02-.09.14-.24.3-.2.48.03.14.19.22.32.27.2.09.41.17.62.21.22.03.46.01.64-.11.16-.11.27-.3.24-.49 0-.04-.02-.08-.04-.1201h.02c.12.02.25.04.33.13.1.1001.1.2601.06.3901z" fill="#d1863b"/><path d="m15.64 19.47c-.03.11-.12.2-.21.29-.14.12-.27.25-.41.36-.13.12-.27.24-.42.31-.23.11-.48.13-.73.14-.22.01-.45.02-.67-.03-.23-.04-.44-.14-.58-.31-.12-.15-.17-.31-.22-.49-.05-.22-.08-.46.01-.66.07-.17.22-.29.36-.37.15-.08.3-.13.46-.18.02 0 .05.0099.0699.0099v.03c-.06.21-.25.24-.4.39-.14.14-.2.31-.17.5.05.32.35.55.66.63.29.08.76.12 1.01-.08.3-.23.73-.31.79-.75.01-.11 0-.24.02-.35.08.03.16.06.23.11.1401.1001.2401.2801.2001.4501z" fill="#d1863b"/><path d="m8.56 15.57c-.12.15-.3.23-.48.3-.17.08-.35.15-.53.19-.19.03-.39.03-.56-.05-.11-.06-.21-.15-.34-.19s-.27-.03-.39-.09c-.21-.09-.3-.36-.26-.59.02-.14.09-.27.16-.39.05-.1.08-.14.15-.15-.03.1-.07.2-.11.3-.02.05-.04.11-.04.16-.04.27.23.53.49.48.14-.02.27-.12.42-.12.12 0 .24.08.36.12.23.09.51.04.7-.12.15-.12.23-.3.24-.49.08.03.15.06.2.11.14.13.11.38-.01.53z" fill="#d1863b"/><path d="m10.47 10.86c-.02.05-.07.09-.12.12-.21.14-.43.29-.68.36-.21.06-.44.06-.66.07-.2 0-.41 0-.56-.12-.15-.1-.22-.28-.25-.46-.04-.19-.04-.4.05-.58.11-.25.34-.32.58-.33-.08.11-.15.25-.23.39-.08.15-.17.34-.09.5.05.09.14.15.24.18.1.02.2.02.31.02.19 0 .39-.01.58-.07.18-.07.36-.2.41-.39.02-.07.03-.15.03-.22v-.01c.11.07.22.17.31.28.06.07.12.17.08.26z" fill="#d1863b"/><path d="m17.16 14.14c-.06.17-.19.31-.34.41-.25.18-.54.31-.85.3-.24-.0099-.48-.11-.68-.25s-.36-.3199-.52-.52c-.12-.15-.23-.31-.29-.5s-.07-.4.02-.57c.12-.24.33-.29.55-.28-.17.21-.3.51-.14.76.22.37 1.14.76 1.55.69.3-.06.55-.32.59-.62.12.17.17.39.11.58z" fill="#c38748"/><path d="m24.66 18.01s-.98 4.07-6.14 7.08c0 0 0 .0099-.01.0099-.09.03-.18.06-.27.08s-.18.05-.27.08c-.14.04-.28.09-.43.13-.08.03-.16.05-.2401.07-.21.05-.43.1-.65.15-.18.03-.36.08-.54.11-.16.03-.3199.0601-.48.07-.16.02-.32.03-.48.05-.12.02-.23.04-.34.05-.07.01-.14.02-.21.02-.19.01-.39.02-.59.03-.24.01-.47.01-.71.01-2.0699-.04-3.93-.53-5.48-1.36-.2799-.1499-.5499-.3199-.8099-.4899s-.51-.36-.75-.55c-.24-.2-.46-.4-.68-.61-2.03-2.03-2.98-4.9-2.33-8.06.05-.23.11-.46.18-.69.05-.17.1-.34.16-.51.04-.14.09-.27.14-.41 0 0 0 0 0-.01.06-.16.1299-.32.2-.47.01-.02.02-.03.03-.05.04-.06.07-.13.11-.2.02-.04.04-.09.07-.13.07-.1299.15-.24.23-.36-.12.35-.22.7-.3 1.06-1.07 5.2 2.83 9.51 8.73 9.62 1.15.02 2.65-.31 4.23-.83.02 0 .03 0 .04-.01 2.21-.73 4.56-1.84 6.23-2.91.11-.06.21-.13.31-.2.1-.0601.2-.13.29-.19.08-.05.15-.1.22-.16.02-.01.04-.03.06-.04.17-.13.33-.26.48-.38z" fill="#d1863b"/><path d="m27.39 16.19c-.09.42-.2.83-.34 1.23-.1.31-.22.61-.36.91-.69 1.31-1.63 2.49-2.76 3.54-.37.33-.75.65-1.16.95-.12.09-.26.18-.39.27-.28.2-.56.39-.86.5699-.16.1-.34.19-.5.28-.27.15-.55.31-.84.46-.18.08-.36.15-.54.23-.3.14-.61.26-.92.37-.07.02-.13.06-.2.09.1-.06.2-.1201.3-.19 4.9-2.98 5.84-6.89 5.84-6.89-2.39 2.01-8.59 4.78-11.86 4.72-5.79-.11-9.65-4.26-8.78-9.33.01-.09.03-.19.05-.29.08-.36.18-.72.3-1.07.05-.06.08-.12.13-.18.01-.01.01-.02.01-.02.13-.2.24-.4.39-.59.3-.43.64-.83 1-1.21 2.78-3.03 7.06-5 11.45-4.92 6.78.1201 11.27 5.0901 10.04 11.0701z" fill="#e9a146"/><path d="m4.37 12.04c.05-.06.08-.12.13-.18-.05.13-.28.7-.48 1.54.01-.09.03-.19.05-.29.08-.36.18-.72.3-1.07z" fill="#d1863b"/><path d="m27.05 17.42c-.1.31-.22.61-.36.91-.69 1.31-1.63 2.49-2.76 3.54-.37.33-.75.65-1.16.95-.12.09-.26.18-.39.27-.28.2-.56.39-.86.5699-.16.1-.34.19-.5.28-.27.15-.55.31-.84.46-.18.08-.36.15-.54.23-.3.14-.61.26-.92.37-.07.02-.13.06-.2.09.1-.06.2-.1201.3-.19 3.9-1.4099 6.57-4.6699 8.23-7.4799z" fill="#d5933e"/><path d="m18.82 24.9c-.1.0699-.2.13-.3.19 0 0-.19.0699-.28.09-.09.02-.18.05-.27.08-.14.04-.28.09-.43.13-.08.03-.16.05-.2401.07-.21.05-.43.1-.65.15-.18.03-.36.08-.54.11-.16.03-.3199.0601-.48.07-.16.02-.32.03-.48.05-.12.02-.23.04-.34.05-.07.01-.14.02-.21.02-.19.01-.39.02-.59.03-.24.01-.47.01-.71.01-2.0699-.04-3.93-.53-5.48-1.36-.2799-.15-.5499-.32-.8099-.49s-.51-.36-.75-.55c-.24-.2-.46-.4-.68-.61-2.03-2.03-2.98-4.9-2.33-8.06.05-.23.11-.46.18-.69.05-.17.1-.34.16-.51.04-.14.09-.27.14-.41 0 0 0 0 0-.01.06-.16.1299-.32.2-.47.01-.02.02-.03.03-.05.04-.06.07-.13.11-.2.02-.04.04-.09.07-.13.07-.1299.15-.24.23-.36-.12.35-.22.7-.3 1.06-.02.1-.04.2-.05.29-.81 3.17-1.44 10.21 8.13 11.99 2.54.47 4.76.22 6.67-.49z" fill="#b97633"/><path d="m4.54 11.57c-.01.04-.03.07-.04.11-.05.11-.09.24-.13.36v.01c-.08.12-.16.23-.23.36-.03.04-.05.09-.07.13-.04.07-.07.14-.11.2.08-.19.16-.38.26-.57.09-.19.19-.38.3-.57.01-.01.01-.02.02-.03z" fill="#d1863b"/><path d="m15.15 25.84c.16-.02.32-.03.48-.05-.27.05-.55.08-.82.1.11-.01.22-.03.34-.05z" fill="#d1863b"/><path d="m16.11 25.72c.4-.0699.8-.16 1.19-.2599-.21.05-.43.1-.65.15-.18.0299-.36.0799-.54.1099z" fill="#d1863b"/><path d="m18.24 25.18c-.23.08-.46.15-.7.21.15-.04.29-.09.43-.13.09-.03.18-.06.27-.08z" fill="#d1863b"/><path d="m23.61 18.78c.17-.1201.34-.2401.51-.35-.07.06-.14.11-.22.16-5.44 4.01-14.65 6.83-19.04.16-.95-1.44-1.3-3.55-1.1299-5.48 0 0 0 0 0-.01.06-.16.1299-.32.2-.47.09-.21.18-.42.29-.62.09-.19.19-.38.3-.57-.01.02-.02.05-.02.08-.03.09-.06.18-.07.28-.54 2.13-.35 4.85.75 6.59 2.69 4.22 7.4 4.62 11.85 3.35.02 0 .03 0 .04-.01 2.24-.64 4.41-1.7 6.23-2.91.1099-.06.2099-.13.3099-.2z" fill="#a66b2e"/><path d="m24.66 18.01c-.16.13-.31.25-.48.38-.02.01-.04.03-.06.04.18-.15.36-.28.54-.42z" fill="#a66b2e"/><path d="m20.33 7.61c-.19.25-.43.48-.71.63-.27.15-.56.24-.85.33-.42.13-.83.26-1.25.39-.08.02-.17.05-.26.06-.22.03-.44.01-.55-.16-.13-.19-.04-.44.05-.65s.17-.42.26-.64c.04-.09.09-.19.13-.29.03-.07.05-.13.08-.17.15-.25.29-.07.58-.1 0 .01 0 .01.01 0 .15-.01.3-.06.45-.12.21-.08.42-.16.67-.11.21.05.42.17.63.21.06.02.12.02.18.02.21-.02.44-.15.61-.03.19.14.1.44-.03.63z" fill="#b76951"/><path d="m19.913 7.7179c-.1843.2569-.4301.4804-.7094.6368-.2625.1452-.5586.2346-.8491.3296-.3631.1117-.7318.2235-1.0948.3407-.2179.0279-.4413.0056-.553-.1676-.1229-.1899-.0391-.4357.0503-.6424.1285-.3128.257-.6256.391-.9385.0279-.067.0558-.1229.0782-.162.0503.0112.1061.0167.1676.0112.1452-.0112.2793-.0559.4134-.1117.0056.0056.0056.0056.0112 0 .1452-.0503.2905-.1117.4469-.1229.0838-.0111.1676-.0111.257.0056.2793.0559.5306.2514.81.2235.2123-.0168.4413-.1508.6145-.0279.1897.1396.1003.4356-.0338.6256z" fill="#924526"/><path d="m17.0637 13.4381c0 .3472-.2689.6721-.6049.7393-.0448.0112-.0896.0112-.1456.0112-.448-.0112-1.1985-.3584-1.4113-.6944-.1792-.3024.0112-.6273.224-.8513.112-.112.224-.2016.3472-.2465.7057-.3583 1.5682.1121 1.5906 1.0417z" fill="#b76951"/><path d="m16.6381 13.5614c.0112.2464-.1233.4816-.3249.6272-.448-.0112-1.1985-.3584-1.4113-.6944-.1792-.3024.0112-.6273.224-.8513.112-.112.224-.2016.3472-.2465.5825-.0447 1.1538.4145 1.165 1.165z" fill="#924526"/><path d="m24.5906 13.2814c.0336.1904-.0784.3808-.2464.4816-.0896.056-.1793.0896-.28.112-.112.0224-.2352.0224-.3472 0-.224-.0336-.4256-.112-.6272-.2016-.1345-.056-.2912-.1344-.3249-.2688-.0448-.2016.1568-.3809.2352-.5377.0112-.0336.0336-.056.0448-.0783.0672-.1456.0672-.168.28-.168.056 0 .1344.0224.1904.0336.0336 0 .0561 0 .0784-.0112.112-.0112.224-.1568.3137-.168.2016-.0112.4704.392.5712.5488.056.0783.1008.168.112.2576z" fill="#b76951"/><path d="m24.2434 13.4381c.0336.168-.0448.3249-.1792.4368-.112.0224-.2352.0224-.3472 0-.224-.0336-.4256-.112-.6272-.2016-.1345-.056-.2912-.1344-.3249-.2688-.0448-.2016.1568-.3809.2352-.5377.0112-.0336.0336-.056.0448-.0783.0672.0111.1344.0336.2016.0111.1008-.0111.2016-.1232.2688-.1455.0112-.0224.0224-.0224.0336-.0224s.0336 0 .0448.0112c.2016.0336.4368.392.5377.5376.056.0785.1008.1681.112.2576z" fill="#924526"/><path d="m15.4172 18.5345c-.0448.1008-.1232.168-.168.2576-.0673.1456-.0336.3136-.0561.4704-.056.4368-.4928.5153-.7952.7504-.0672.0561-.168.0896-.2688.112-.2352.056-.5377.0224-.7393-.0336-.3136-.0784-.6048-.3136-.6608-.6385-.0336-.1904.0336-.3584.168-.4928.1568-.1455.3472-.1792.4032-.392.0561-.2128-.0448-.4256.0448-.6385.0672-.1568.1792-.2912.3248-.392h.0112c.0448-.0448.1008-.0784.1568-.1008.2352-.1232.5152-.1568.7392-.0336.2577.1346.9746.8066.8402 1.1314z" fill="#b76951"/><path d="m15.0364 18.7137c-.0336.1008-.1233.168-.168.2576-.0672.1456-.0336.3137-.0448.4705-.0561.392-.4144.4928-.6944.6832-.2352.056-.5377.0224-.7393-.0336-.3136-.0784-.6048-.3136-.6608-.6385-.0336-.1904.0336-.3584.168-.4928.1568-.1455.3472-.1792.4032-.392.0561-.2128-.0448-.4256.0448-.6385.0672-.1568.1792-.2912.3248-.392h.0112c.168-.056.3584-.0448.5153.0448.2575.1344.9856.8065.84 1.1313z" fill="#924526"/><path d="m10.0968 9.854c0 .1568-.0112.3136-.0224.4704 0 .0784 0 .1568-.0224.224-.056.1904-.224.3248-.4144.392-.1792.0672-.3809.0672-.5825.0672-.0672 0-.1344 0-.2016-.0112h-.0111c-.0336 0-.0672 0-.0896-.0112-.1008-.0224-.1904-.0784-.2464-.1792-.0784-.1568.0112-.3472.1008-.504.2127-.4033.3808-.7168.8176-.8289h.0112c.056-.0224.1232-.0224.2016-.0336.168-.0112.3584.0224.4368.168.0336.0784.0336.168.0224.2465z" fill="#b76951"/><path d="m9.604 9.854c-.0112.1568-.0112.3136-.0224.4704 0 .0784 0 .1568-.0224.224-.056.1904-.2352.3248-.4144.392-.1008.0336-.1905.056-.2912.056h-.0112c-.0336 0-.0672 0-.0896-.0112-.1008-.0224-.1904-.0784-.2464-.1792-.0784-.1568.0112-.3472.1008-.504.2127-.4033.3808-.7168.8176-.8289h.0112c.056.0336.112.0672.1344.1344.0448.0784.0336.168.0336.2465z" fill="#924526"/><path d="m8.3607 14.7487c.0448.2464-.0448.5152-.2352.672-.0896.0784-.2128.1344-.336.1568s-.2464.0112-.3584-.0336c-.1232-.0448-.2352-.1232-.3696-.1232-.1455 0-.2688.0896-.4144.1232-.2576.0448-.5264-.2128-.4928-.4816.0112-.056.0336-.112.0448-.168.0448-.112.0896-.224.1344-.3361.0224-.0672.0448-.112.0784-.1568.0672-.1568.1904-.224.4032-.2577.0784-.0112.9745-.0448.9745-.0224.0448.1904-.0672.4032.0448.56.1119.1569.3471.1234.5263.0674z" fill="#b76951"/><path d="m7.9351 15.0175c.0336.1904-.0112.4032-.1456.56-.1232.0224-.2464.0112-.3584-.0336-.1232-.0448-.2352-.1232-.3696-.1232-.1455 0-.2688.0896-.4144.1232-.2576.0448-.5264-.2128-.4928-.4816.0112-.056.0336-.112.0448-.168.0448-.112.0896-.224.1344-.3361.0224-.0672.0448-.112.0784-.1568.1792-.0112.9408-.0336.952-.0112.0448.1792-.0672.392.0448.5488.1008.1569.3472.1233.5264.0785z" fill="#924526"/><g fill="#d1863b"><circle cx="21.209" cy="16.238" r=".285"/><circle cx="9.29" cy="13.014" r=".285"/><circle cx="21.355" cy="11.986" r=".285"/><circle cx="23.963" cy="9.197" r=".285"/><circle cx="14.835" cy="10.508" r=".285"/><circle cx="13.506" cy="9.035" r=".285"/><circle cx="17.699" cy="15.953" r=".454"/><circle cx="10.06" cy="19.194" r=".454"/><circle cx="12.767" cy="13.183" r=".454"/><circle cx="12.609" cy="7.505" r=".454"/><circle cx="22.099" cy="8.912" r=".454"/></g></svg>