<svg xmlns="http://www.w3.org/2000/svg" version="1.1" xmlns:xlink="http://www.w3.org/1999/xlink" width="512" height="512" x="0" y="0" viewBox="0 0 512 512" style="enable-background:new 0 0 512 512" xml:space="preserve" class=""><g><path fill="#26457d" d="M13.678 455.323 2.642 476.914a24.112 24.112 0 0 0 32.443 32.443l21.591-11.036z" opacity="1" data-original="#26457d"></path><path fill="#e4fbef" d="m371.047 41.652 99.213 99.214-26.456 26.456L344.59 68.11z" opacity="1" data-original="#e4fbef"></path><path fill="#d3effb" d="m452.077 122.674 18.189 18.189-26.457 26.456-18.189-18.189z" opacity="1" data-original="#d3effb"></path><path fill="#f1d59d" d="M138.693 470.803c-.855.515-1.731.999-2.617 1.442a38.665 38.665 0 0 1-5.882 2.431.467.467 0 0 1-.113.041l-73.4 23.601-43-43 23.601-73.4a.514.514 0 0 1 .041-.113 39.258 39.258 0 0 1 2.431-5.893 37.92 37.92 0 0 1 1.442-2.606z" opacity="1" data-original="#f1d59d" class=""></path><path fill="#238dc0" d="m470.302 140.926-99.228-99.228 31.422-31.422c13.701-13.701 35.914-13.701 49.614 0l49.614 49.614c13.701 13.701 13.701 35.914 0 49.614z" opacity="1" data-original="#df75a5" class=""></path><path fill="#1d80b0" d="m501.725 59.889-18.192-18.192c13.701 13.701 13.701 35.914 0 49.614l-31.422 31.422 18.192 18.192 31.422-31.422c13.7-13.7 13.7-35.913 0-49.614z" opacity="1" data-original="#dd5790" class=""></path><path fill="#ffe07d" d="M377.685 101.236 73.411 405.521l-4.77 4.759c-2.029-2.03-4.986-3.142-8.149-2.617l-13.856 2.308c-6.325 1.061-11.816-4.43-10.765-10.765l3.884-23.292a37.92 37.92 0 0 1 1.442-2.606 41.227 41.227 0 0 1 6.181-7.912L344.616 68.157z" opacity="1" data-original="#ffe07d" class=""></path><path fill="#ffc250" d="M443.843 167.384 146.605 464.622a41.227 41.227 0 0 1-7.912 6.181c-.855.515-1.731.999-2.617 1.442l-23.282 3.884c-6.336 1.051-11.826-4.44-10.765-10.765l2.308-13.856c.525-3.163-.587-6.119-2.617-8.149l4.77-4.759 304.274-304.285z" opacity="1" data-original="#ffc250"></path><path fill="#ffd064" d="M377.689 101.235 68.644 410.28c2.032 2.032 3.14 4.987 2.613 8.153l-2.309 13.853c-1.055 6.332 4.434 11.821 10.766 10.766l13.853-2.309c3.166-.528 6.121.581 8.153 2.613l309.045-309.045z" opacity="1" data-original="#ffd064"></path></g></svg>