<?xml version="1.0" encoding="utf-8"?>
<!-- Generator: Adobe Illustrator 22.1.0, SVG Export Plug-In . SVG Version: 6.00 Build 0)  -->
<svg version="1.1" id="Capa_1" xmlns="http://www.w3.org/2000/svg" xmlns:xlink="http://www.w3.org/1999/xlink" x="0px" y="0px"
	 viewBox="0 0 1000 174.3" style="enable-background:new 0 0 1000 174.3;" xml:space="preserve">
<style type="text/css">
	.st0{fill:#323E48;}
	.st1{fill:#238DC1;}
</style>
<g>
	<g>
		<path class="st0" d="M58.3,131.1c-8.7,5.4-18.8,8.9-27.7,8.9C8.3,140,0,129.2,0,111.1c0-20.4,12-31.5,35.7-31.5h17.9V76
			c0-7.6-4.7-12.4-17.9-12.4c-9,0-20,1.4-27.1,3.1L5,44.7c7.8-2.3,20.5-3.7,30.6-3.7c29,0,42.3,10.1,42.3,30.3v66.4H61L58.3,131.1z
			 M53.6,112.5V101l-15-0.2c-12.2,0-14.1,2.4-14.1,9c0,5,3.3,8.2,10.6,8.2C42.1,118.3,48,116,53.6,112.5z"/>
		<path class="st0" d="M122.2,174.3c-26.3,0-38.3-9.4-38.4-24.7c0-8,4.2-14.3,9.9-19c-5-4.5-7.3-10.4-7.5-16.9
			c0.2-9,4-15.1,10.4-18.8c-3.1-4.9-4.7-11.1-4.7-19v-2.3C91.9,51.5,105,41,130,41c9.9,0,18.1,1.7,24.2,5.2l22.4-3.1l-1,19.8h-8.9
			c0.9,3.3,1.4,6.8,1.4,10.8V76c0,22.1-13.2,32.4-38.1,32.4c-7.8,0-14.4-0.9-19.8-3c-3.1,1-4,3.3-4,5.7c0,4.3,3.1,7,16,7H137
			c23.1,0,37.4,7.7,37.4,27.7c0,19.7-12.7,28.5-38.1,28.5H122.2z M137.8,155c9.6,0,13.1-2.8,13.1-8c0-5.7-5.2-7.8-14.4-7.8h-20.2
			c-6.1,0-9.6,2.1-9.6,8.2c0,5,4.2,7.7,12.5,7.7H137.8z M144.3,73c0-8.3-4.9-12.5-14.3-12.5c-10.1,0-14.4,4.2-14.4,12.5v2.4
			c0,8.9,4.4,13.4,14.4,13.4c10.1,0,14.3-4.5,14.3-13.4V73z"/>
		<path class="st0" d="M226.2,140c-31,0-42.4-12.4-42.4-34.4v-32c0-20.9,10.6-32.5,39.7-32.5c27.8,0,38.1,11.7,38.1,32.5v27.1h-53.4
			v4.5c0,7.8,4.9,12.2,18.1,12.2c10.4,0,22.8-1,30.3-3l3.6,21.9C251.4,138.8,237.6,140,226.2,140z M208.1,79.8h29v-5.2
			c0-7.3-3.8-11-13.7-11c-11.3,0-15.3,3.7-15.3,11V79.8z"/>
		<path class="st0" d="M293.9,67.6v70.1h-24.4V46.6l20.4-5.2l1.9,8.3c8.2-5.2,17.7-8.7,25.9-8.7c19.7,0,29.6,11.5,29.6,32v64.7
			h-24.5V78.3c0-9.2-3.8-14.6-13-14.6C305.2,63.6,299.5,65.2,293.9,67.6z"/>
		<path class="st0" d="M379.8,78.4v24.2c0,10.1,5.7,14.8,17.2,14.8c8,0,18.1-0.9,24.4-2.8l3.6,21.9c-8,2.3-21,3.5-31.8,3.5
			c-27.1,0-37.7-12-37.7-33.6V74.6C355.4,53,366,41,393.2,41c10.8,0,23.8,1.4,31.8,3.7l-3.6,21.7c-6.4-1.7-16.4-2.8-24.5-2.8
			C385.5,63.6,379.8,67.6,379.8,78.4z"/>
		<path class="st0" d="M457.6,1.9v25.9l-24.5,6.1V8.2L457.6,1.9z M433.1,137.7V47.1l24.5-6.3v96.9H433.1z"/>
		<path class="st0" d="M524,131.1c-8.7,5.4-18.8,8.9-27.7,8.9c-22.3,0-30.6-10.8-30.6-28.9c0-20.4,12-31.5,35.7-31.5h17.9V76
			c0-7.6-4.7-12.4-17.9-12.4c-9,0-20,1.4-27.1,3.1l-3.5-22.1c7.8-2.3,20.5-3.7,30.6-3.7c29,0,42.3,10.1,42.3,30.3v66.4h-16.9
			L524,131.1z M519.3,112.5V101l-15-0.2c-12.2,0-14.1,2.4-14.1,9c0,5,3.3,8.2,10.6,8.2C507.8,118.3,513.7,116,519.3,112.5z"/>
	</g>
	<g>
		<path class="st1" d="M642.5,131.1c-8.7,5.4-18.8,8.9-27.7,8.9c-22.3,0-30.6-10.8-30.6-28.9c0-20.4,12-31.5,35.7-31.5h17.9V76
			c0-7.6-4.7-12.4-17.9-12.4c-9,0-20,1.4-27.1,3.1l-3.5-22.1c7.8-2.3,20.5-3.7,30.6-3.7c29,0,42.3,10.1,42.3,30.3v66.4h-16.9
			L642.5,131.1z M637.8,112.5V101l-15-0.2c-12.2,0-14.1,2.4-14.1,9c0,5,3.3,8.2,10.6,8.2C626.3,118.3,632.2,116,637.8,112.5z"/>
		<path class="st1" d="M723.7,13.1v29c-7-0.6-13.9-1-18.9-0.9c-25.2-0.1-34.7,12.3-34.7,33.8v33.1c0,20.6,10.9,31.9,31.9,31.9
			c9,0,19.9-2.9,28.9-8.3l3.5,6.1h13.8V7.5L723.7,13.1z M723.7,113.6c-5.1,2.3-10.4,3.8-15.2,3.8c-10.7,0-13.9-2.9-13.9-13.9V79.3
			c0-10.9,4.4-15.7,13.9-15.7c4.1,0,9.6,0.3,15.2,0.9V113.6z"/>
		<path class="st1" d="M842.3,74.6c0-21.4,10.3-33.6,39.8-33.6c29.9,0,40.2,12.2,40.2,33.6v31.3c0,21.6-10.3,34.1-40.2,34.1
			c-29.6,0-39.8-12.5-39.8-34.1V74.6z M898,76.5c0-8.5-4-12.9-15.8-12.9c-11,0-15.5,4.3-15.5,12.9v28.4c0,8,4.5,12.5,15.5,12.5
			c11.8,0,15.8-4.3,15.8-12.5V76.5z"/>
		<path class="st1" d="M954.8,78.4v24.2c0,10.1,5.7,14.8,17.2,14.8c8,0,18.1-0.9,24.4-2.8l3.6,21.9c-8,2.3-21,3.5-31.8,3.5
			c-27.1,0-37.7-12-37.7-33.6V74.6C930.4,53,941,41,968.2,41c10.8,0,23.8,1.4,31.8,3.7l-3.6,21.7c-6.4-1.7-16.4-2.8-24.5-2.8
			C960.5,63.6,954.8,67.6,954.8,78.4z"/>
		<path class="st1" d="M780.6,66.3v71.5h-24.4V5.6L780.6,0v46.6c7.5-3.5,15.8-5.6,22.8-5.6c20.5,0,30.8,10.6,30.8,29.9v66.8h-24.5
			V79c0-11-4.5-15.3-14.3-15.3C791.3,63.6,785.9,64.7,780.6,66.3z"/>
	</g>
</g>
</svg>
